STARTFONT 2.1
FONT -Monotype-Plantin-Bold-R-Normal--33-240-100-100-P-191-iso8859-5
SIZE 24 100 100
FONTBOUNDINGBOX 41 37 -2 -7

STARTPROPERTIES 24
FOUNDRY "Monotype"
FAMILY_NAME "Plantin"
WEIGHT_NAME "Bold"
SLANT "R"
SETWIDTH_NAME "Normal"
ADD_STYLE_NAME ""
PIXEL_SIZE 33
POINT_SIZE 240
RESOLUTION_X 100
RESOLUTION_Y 100
SPACING "P"
AVERAGE_WIDTH 191
CHARSET_REGISTRY "iso8859"
CHARSET_ENCODING "5"
FACE_NAME "Plantin Bold ISO Latin Cyrillic"
_DEC_DEVICE_FONTNAMES "PS=plantin-b-latcyrillic"
COPYRIGHT "Copyright (c) 1993 Monotype Typography Ltd."
CAP_HEIGHT 25
X_HEIGHT 16
WEIGHT 10
QUAD_WIDTH 23
DEFAULT_CHAR 160
FONT_DESCENT 7
FONT_ASCENT 30
ENDPROPERTIES

CHARS 191

STARTCHAR space
ENCODING 32
SWIDTH 250 0
DWIDTH 8 0
BBX 0 0 0 0
BITMAP
ENDCHAR

STARTCHAR exclam
ENCODING 33
SWIDTH 344 0
DWIDTH 11 0
BBX 6 23 3 0
BITMAP
78
FC
FC
FC
FC
78
78
78
78
78
78
30
30
30
30
00
00
78
FC
FC
FC
FC
78
ENDCHAR

STARTCHAR quotedbl
ENCODING 34
SWIDTH 552 0
DWIDTH 18 0
BBX 13 10 3 12
BITMAP
7070
F8F8
F8F8
F8F8
70F0
7070
7070
7070
2020
2020
ENDCHAR

STARTCHAR numbersign
ENCODING 35
SWIDTH 500 0
DWIDTH 17 0
BBX 15 23 1 -1
BITMAP
060C
060C
061C
0C18
0C18
0C18
0C18
FFFE
FFFE
1830
1830
1830
1870
3060
FFFE
FFFE
3060
30E0
60C0
60C0
60C0
60C0
E1C0
ENDCHAR

STARTCHAR dollar
ENCODING 36
SWIDTH 521 0
DWIDTH 17 0
BBX 15 26 1 -3
BITMAP
0300
1FE0
3DF8
733C
F33C
F31C
F300
FB00
FF00
7F80
3FC0
1FF0
0FF8
07FC
03FC
037E
033E
031E
E31E
F31C
F33C
7FF8
1FE0
0300
0300
0300
ENDCHAR

STARTCHAR percent
ENCODING 37
SWIDTH 927 0
DWIDTH 31 0
BBX 29 24 1 -1
BITMAP
1F000E00
7BC01E00
71C01C00
F1E03800
F1E07800
F1E07000
F1E0F000
F1E0E000
F1E1C000
71C3C000
3BC38000
1F070000
000707C0
000E0EF0
001E1C70
001C3C78
00383C78
00783C78
00703C78
00F03C78
00E03C78
01C01C70
03C00EF0
078007C0
ENDCHAR

STARTCHAR ampersand
ENCODING 38
SWIDTH 781 0
DWIDTH 26 0
BBX 25 23 0 0
BITMAP
003C0000
00FF0000
018F0000
03878000
07C38000
07C30000
07E70000
07FC0000
03F83F80
01FC3F80
03FE0E00
0E7F0C00
1C7F8800
3C3F9800
781FF000
F80FE000
FC07E000
FC07F000
FE03F800
FF03FC00
7FCEFE00
3FF87F80
1FE03F80
ENDCHAR

STARTCHAR quoteright
ENCODING 39
SWIDTH 344 0
DWIDTH 11 0
BBX 7 10 2 13
BITMAP
78
FC
FE
FE
7E
0E
0E
1C
78
70
ENDCHAR

STARTCHAR parenleft
ENCODING 40
SWIDTH 417 0
DWIDTH 14 0
BBX 10 30 3 -7
BITMAP
0080
01C0
0380
0700
0E00
1E00
3C00
3C00
7800
7800
7800
F000
F000
F000
F000
F000
F000
F000
7000
7800
7800
3800
3C00
1C00
1E00
0F00
0700
03C0
00C0
0040
ENDCHAR

STARTCHAR parenright
ENCODING 41
SWIDTH 417 0
DWIDTH 14 0
BBX 10 30 0 -7
BITMAP
C000
E000
7000
3800
1C00
1E00
0F00
0F00
0780
0780
0780
03C0
03C0
03C0
03C0
03C0
03C0
03C0
03C0
0780
0780
0700
0F00
0E00
1E00
3C00
3800
7000
C000
4000
ENDCHAR

STARTCHAR asterisk
ENCODING 42
SWIDTH 510 0
DWIDTH 17 0
BBX 15 15 1 8
BITMAP
0100
0300
0380
0380
0380
FFFE
FFFE
3FF8
0FE0
0FE0
0FE0
1EF0
1C70
3838
1010
ENDCHAR

STARTCHAR plus
ENCODING 43
SWIDTH 667 0
DWIDTH 22 0
BBX 18 17 2 2
BITMAP
01C000
01C000
01C000
01C000
01C000
01C000
01C000
FFFFC0
FFFFC0
FFFFC0
01C000
01C000
01C000
01C000
01C000
01C000
01C000
ENDCHAR

STARTCHAR comma
ENCODING 44
SWIDTH 344 0
DWIDTH 11 0
BBX 7 12 2 -6
BITMAP
30
7C
FC
FE
7E
3E
0E
0E
0C
18
F0
E0
ENDCHAR

STARTCHAR minus
ENCODING 45
SWIDTH 667 0
DWIDTH 22 0
BBX 18 3 2 9
BITMAP
FFFFC0
FFFFC0
FFFFC0
ENDCHAR

STARTCHAR period
ENCODING 46
SWIDTH 344 0
DWIDTH 11 0
BBX 6 6 3 0
BITMAP
78
FC
FC
FC
FC
78
ENDCHAR

STARTCHAR slash
ENCODING 47
SWIDTH 281 0
DWIDTH 9 0
BBX 9 22 0 0
BITMAP
0180
0180
0300
0300
0300
0600
0600
0600
0E00
0C00
0C00
0C00
1800
1800
1800
3000
3000
3000
6000
6000
6000
C000
ENDCHAR

STARTCHAR zero
ENCODING 48
SWIDTH 521 0
DWIDTH 17 0
BBX 15 22 1 0
BITMAP
0380
0FE0
1C70
3838
3838
783C
783C
F83E
F83E
F83E
F83E
F83E
F83E
F83E
783C
783C
783C
3838
3838
1C70
0FE0
0380
ENDCHAR

STARTCHAR one
ENCODING 49
SWIDTH 521 0
DWIDTH 17 0
BBX 12 22 3 0
BITMAP
0300
0F00
3F00
FF00
FF00
1F00
0F00
0F00
0F00
0F00
0F00
0F00
0F00
0F00
0F00
0F00
0F00
0F00
0F00
0F00
1F80
FFF0
ENDCHAR

STARTCHAR two
ENCODING 50
SWIDTH 521 0
DWIDTH 17 0
BBX 14 22 1 0
BITMAP
0FC0
3FF0
7FF0
E1F8
40F8
0078
0078
0078
0070
00F0
00E0
00C0
01C0
0380
0700
0600
0C04
180C
3FFC
7FF8
FFF8
FFF8
ENDCHAR

STARTCHAR three
ENCODING 51
SWIDTH 521 0
DWIDTH 17 0
BBX 14 22 2 0
BITMAP
0FC0
3FF0
7FF0
E1F8
80F8
00F8
00F0
00E0
0180
07E0
3FF0
1FF8
01FC
007C
007C
007C
0078
0078
4070
F0E0
FF80
3E00
ENDCHAR

STARTCHAR four
ENCODING 52
SWIDTH 521 0
DWIDTH 17 0
BBX 16 22 1 0
BITMAP
0038
0078
00F8
00F8
01B8
0378
0278
0678
0C78
0878
1078
3078
6078
4078
FFFF
FFFF
FFFF
0078
0078
0078
0078
0078
ENDCHAR

STARTCHAR five
ENCODING 53
SWIDTH 521 0
DWIDTH 17 0
BBX 14 23 2 0
BITMAP
000C
07F8
0FF8
0FF0
1800
1000
1000
3C00
3F00
7FC0
7FE0
1FF0
07F8
01F8
00F8
0078
0038
0038
0030
0070
70E0
FFC0
7E00
ENDCHAR

STARTCHAR six
ENCODING 54
SWIDTH 521 0
DWIDTH 17 0
BBX 15 22 1 0
BITMAP
0018
007C
01E0
07C0
0F80
1F00
3E00
3C00
7C00
7DF0
FFF8
FC7C
F87C
F83E
F83E
F83E
783E
783C
3C3C
3C78
0FF0
03C0
ENDCHAR

STARTCHAR seven
ENCODING 55
SWIDTH 521 0
DWIDTH 17 0
BBX 14 22 2 0
BITMAP
7FFC
7FF8
7FF8
FFF8
C030
8030
0070
0060
0060
00E0
00C0
00C0
01C0
0180
0180
0380
0300
0300
0700
0600
0600
0C00
ENDCHAR

STARTCHAR eight
ENCODING 56
SWIDTH 521 0
DWIDTH 17 0
BBX 14 22 2 0
BITMAP
0F80
3FE0
7870
F038
F038
F038
F838
FC70
7F60
3F80
1FC0
0FF0
1BF0
31F8
70FC
E07C
E07C
E07C
E078
70F0
3FE0
0F80
ENDCHAR

STARTCHAR nine
ENCODING 57
SWIDTH 521 0
DWIDTH 17 0
BBX 15 22 1 0
BITMAP
0FE0
1CF0
3C78
783C
783C
F83E
F83E
F83E
F83E
7C3E
7E7E
3FFE
1F3C
007C
0078
00F8
00F0
01E0
07C0
0F80
3E00
3000
ENDCHAR

STARTCHAR colon
ENCODING 58
SWIDTH 344 0
DWIDTH 11 0
BBX 6 15 3 0
BITMAP
78
FC
FC
FC
FC
30
00
00
00
38
FC
FC
FC
FC
78
ENDCHAR

STARTCHAR semicolon
ENCODING 59
SWIDTH 344 0
DWIDTH 11 0
BBX 7 21 2 -6
BITMAP
3C
7E
7E
7E
7E
3C
00
00
00
10
78
FC
FE
FE
3E
0E
0E
0C
1C
78
E0
ENDCHAR

STARTCHAR less
ENCODING 60
SWIDTH 667 0
DWIDTH 22 0
BBX 18 18 2 2
BITMAP
000040
0001C0
000FC0
003FC0
01FF00
07FC00
1FE000
FF8000
F80000
FC0000
FF0000
3FE000
0FF800
01FF00
007FC0
000FC0
0003C0
000040
ENDCHAR

STARTCHAR equal
ENCODING 61
SWIDTH 667 0
DWIDTH 22 0
BBX 18 11 2 5
BITMAP
FFFFC0
FFFFC0
FFFFC0
000000
000000
000000
000000
000000
FFFFC0
FFFFC0
FFFFC0
ENDCHAR

STARTCHAR greater
ENCODING 62
SWIDTH 667 0
DWIDTH 22 0
BBX 18 18 2 2
BITMAP
800000
E00000
FC0000
FF0000
3FE000
0FF800
01FE00
007FC0
0007C0
000FC0
003FC0
01FF00
07F800
3FE000
FF8000
FC0000
F00000
800000
ENDCHAR

STARTCHAR question
ENCODING 63
SWIDTH 458 0
DWIDTH 15 0
BBX 13 23 0 0
BITMAP
3E00
FF80
FFC0
F860
0030
0038
0038
00F8
07F8
0FF8
0FF0
0FE0
0F80
0C00
0C00
0000
0000
1E00
3F00
3F00
3F00
3F00
1E00
ENDCHAR

STARTCHAR at
ENCODING 64
SWIDTH 927 0
DWIDTH 31 0
BBX 28 29 2 -7
BITMAP
001FE000
00F01C00
01800600
07000100
0C000080
18000040
18000040
300F7820
201CB820
6038F820
6070F020
40F0F020
C0E0F020
C1E1E020
C1E1E020
C3C1E040
C3C3E040
C3C5C080
43CBC100
43FBC310
61F3CC10
21C1F020
30000020
10000040
08000080
04000300
03000600
00E03800
001FC000
ENDCHAR

STARTCHAR A
ENCODING 65
SWIDTH 781 0
DWIDTH 26 0
BBX 26 23 0 0
BITMAP
007F0000
003F0000
003F0000
003F8000
006F8000
005FC000
00CFC000
00CFC000
0187E000
0187E000
0183F000
0303F000
03FFF000
07FFF800
0601F800
0601FC00
0C00FC00
0C00FC00
0C007E00
1C007E00
3C00FF00
FF03FFC0
FF03FFC0
ENDCHAR

STARTCHAR B
ENCODING 66
SWIDTH 781 0
DWIDTH 26 0
BBX 24 23 1 0
BITMAP
FFFFC0
FFFFF8
1F81FC
1F80FE
1F807E
1F807E
1F807E
1F807E
1F80FC
1F81F8
1FFF80
1FFFF0
1F81FC
1F807E
1F807F
1F803F
1F803F
1F803F
1F807F
1F807E
3FC0FC
FFFFF8
FFFFC0
ENDCHAR

STARTCHAR C
ENCODING 67
SWIDTH 802 0
DWIDTH 26 0
BBX 23 23 2 0
BITMAP
003F80
01FFF8
07C0FC
0F803C
1F001E
3E000E
7E000E
7E0000
FC0000
FC0000
FC0000
FC0000
FC0000
FC0000
FE0000
FE0006
7E000E
3F000E
3F001E
1F803E
07E07E
01FFF8
001F80
ENDCHAR

STARTCHAR D
ENCODING 68
SWIDTH 875 0
DWIDTH 29 0
BBX 26 23 1 0
BITMAP
FFFFC000
FFFFF800
1F81FC00
1F807E00
1F803F00
1F801F80
1F801F80
1F801FC0
1F800FC0
1F800FC0
1F800FC0
1F800FC0
1F800FC0
1F800FC0
1F800FC0
1F800F80
1F801F80
1F801F00
1F803F00
1F807E00
1FC0F800
FFFFF000
FFFF0000
ENDCHAR

STARTCHAR E
ENCODING 69
SWIDTH 750 0
DWIDTH 25 0
BBX 23 23 1 0
BITMAP
FFFFFC
FFFFFC
1F807C
1F803C
1F801C
1F8000
1F8000
1F8060
1F8060
1F80E0
1FFFE0
1FFFE0
1F80E0
1F8060
1F8060
1F8000
1F8000
1F8006
1F800E
1F801E
3FC07E
FFFFFE
FFFFFC
ENDCHAR

STARTCHAR F
ENCODING 70
SWIDTH 687 0
DWIDTH 23 0
BBX 21 23 1 0
BITMAP
FFFFF8
FFFFF8
1F8078
1F8038
1F8018
1F8000
1F8000
1F80E0
1F80E0
1F81E0
1FFFE0
1FFFE0
1F81E0
1F80E0
1F80E0
1F8000
1F8000
1F8000
1F8000
1F8000
1FC000
FFF000
FFF000
ENDCHAR

STARTCHAR G
ENCODING 71
SWIDTH 844 0
DWIDTH 28 0
BBX 25 23 2 0
BITMAP
003F8000
03FFF800
07C0FC00
1F803E00
3F001E00
3E000E00
7E000E00
7E000000
FC000000
FC000000
FC000000
FC03FF80
FC03FF80
FC007E00
FE007E00
FE007E00
7E007E00
7F007E00
3F007E00
1F807E00
0FE07E00
03FFFC00
003F8000
ENDCHAR

STARTCHAR H
ENCODING 72
SWIDTH 875 0
DWIDTH 29 0
BBX 27 23 1 0
BITMAP
FFF1FFE0
FFF1FFE0
1F803F80
1F803F00
1F803F00
1F803F00
1F803F00
1F803F00
1F803F00
1F803F00
1FFFFF00
1FFFFF00
1F803F00
1F803F00
1F803F00
1F803F00
1F803F00
1F803F00
1F803F00
1F803F00
1FC03F80
FFF1FFE0
FFF1FFE0
ENDCHAR

STARTCHAR I
ENCODING 73
SWIDTH 406 0
DWIDTH 13 0
BBX 12 23 1 0
BITMAP
FFF0
FFF0
1FC0
1F80
1F80
1F80
1F80
1F80
1F80
1F80
1F80
1F80
1F80
1F80
1F80
1F80
1F80
1F80
1F80
1F80
1FC0
FFF0
FFF0
ENDCHAR

STARTCHAR J
ENCODING 74
SWIDTH 406 0
DWIDTH 13 0
BBX 15 29 -2 -6
BITMAP
1FFE
1FFE
03F0
03F0
03F0
03F0
03F0
03F0
03F0
03F0
03F0
03F0
03F0
03F0
03F0
03F0
03F0
03F0
03F0
03F0
03F0
03F0
03F0
03F0
03E0
73E0
F3C0
FF80
7E00
ENDCHAR

STARTCHAR K
ENCODING 75
SWIDTH 781 0
DWIDTH 26 0
BBX 25 23 1 0
BITMAP
FFF1FF00
FFF1FF00
1F807C00
1F80F000
1F80E000
1F81C000
1F830000
1F860000
1F980000
1FBC0000
1FBE0000
1FFE0000
1FBF0000
1FBF8000
1F9FC000
1F8FE000
1F8FF000
1F87F800
1F83FC00
1F81FE00
1F80FF00
FFF07F80
FFF03F80
ENDCHAR

STARTCHAR L
ENCODING 76
SWIDTH 687 0
DWIDTH 23 0
BBX 22 23 1 0
BITMAP
FFF000
FFF000
1FC000
1F8000
1F8000
1F8000
1F8000
1F8000
1F8000
1F8000
1F8000
1F8000
1F8000
1F8000
1F8000
1F8000
1F8000
1F801C
1F8038
1F8078
1FC1F8
FFFFF8
FFFFF8
ENDCHAR

STARTCHAR M
ENCODING 77
SWIDTH 1010 0
DWIDTH 33 0
BBX 33 23 0 0
BITMAP
1FE003FE00
1FE003FE00
07F003F000
07F003F000
07F007F000
07F807F000
06F80DF000
06F80DF800
04FC19F800
0CFC19F800
0C7E31F800
0C7E31F800
0C7F70F800
083F60FC00
183FE0FC00
181FC0FC00
181FC0FC00
180F80FC00
180F80FC00
380780FE00
380700FE00
FF0707FF80
FF0707FF80
ENDCHAR

STARTCHAR N
ENCODING 78
SWIDTH 792 0
DWIDTH 26 0
BBX 26 23 0 0
BITMAP
FF807FC0
FFC07FC0
1FE00E00
0FF00E00
0FF00600
0BF80600
0BFC0600
09FE0600
08FF0600
087F8600
083FC600
0C1FE600
0C0FE600
0C07F600
0C03FE00
0C03FE00
0C01FE00
0C00FE00
0C007E00
0C003E00
1E001E00
7FC00E00
7FC00600
ENDCHAR

STARTCHAR O
ENCODING 79
SWIDTH 875 0
DWIDTH 29 0
BBX 25 23 2 0
BITMAP
007F0000
03FFE000
07C1F800
0F00FC00
1F007E00
3E003F00
7E003F00
7E003F80
FC001F80
FC001F80
FC001F80
FC001F80
FC001F80
FC001F80
FE001F80
FE001F00
7E003F00
7E003E00
3F007E00
1F807C00
0FC1F000
03FFE000
003E0000
ENDCHAR

STARTCHAR P
ENCODING 80
SWIDTH 729 0
DWIDTH 24 0
BBX 23 23 1 0
BITMAP
FFFFC0
FFFFF0
1F81FC
1F80FC
1F80FE
1F807E
1F807E
1F807E
1F80FE
1F80FC
1F81FC
1F9FF0
1F9F80
1F8000
1F8000
1F8000
1F8000
1F8000
1F8000
1F8000
3FC000
FFF000
FFF000
ENDCHAR

STARTCHAR Q
ENCODING 81
SWIDTH 865 0
DWIDTH 29 0
BBX 26 30 2 -7
BITMAP
007F0000
01FFE000
07C1F800
0F00FC00
1F007E00
3E003F00
7E003F00
7E003F80
FC001F80
FC001F80
FC001F80
FC001F80
FC001F80
FC001F80
FE001F80
FE001F80
7E001F00
7E003F00
3F003E00
3F007C00
1F80F800
07E1F000
03FF8000
007FC000
003FF800
000FFF80
0003FFC0
0000FFC0
00001FC0
000001C0
ENDCHAR

STARTCHAR R
ENCODING 82
SWIDTH 771 0
DWIDTH 25 0
BBX 25 23 1 0
BITMAP
FFFF8000
FFFFF000
1F83F800
1F81FC00
1F80FC00
1F80FC00
1F80FC00
1F80FC00
1F80FC00
1F81F800
1F83F000
1FFF4000
1FFF8000
1F9FC000
1F8FE000
1F8FE000
1F87F000
1F83F800
1F81FC00
1F81FC00
3F80FE00
FFF07F80
FFF03F80
ENDCHAR

STARTCHAR S
ENCODING 83
SWIDTH 656 0
DWIDTH 22 0
BBX 18 23 2 0
BITMAP
07E000
1FFE00
3C1F00
780F00
F80780
F80380
FC0380
FF0000
FFC000
7FF000
3FFC00
1FFE00
07FF80
01FF80
007FC0
001FC0
E00FC0
E00FC0
F00F80
F80F80
FC1F00
7FFE00
07F000
ENDCHAR

STARTCHAR T
ENCODING 84
SWIDTH 740 0
DWIDTH 24 0
BBX 22 23 1 0
BITMAP
FFFFFC
FFFFFC
F0FC3C
E0FC1C
C0FC0C
00FC00
00FC00
00FC00
00FC00
00FC00
00FC00
00FC00
00FC00
00FC00
00FC00
00FC00
00FC00
00FC00
00FC00
00FC00
00FE00
07FF80
07FF80
ENDCHAR

STARTCHAR U
ENCODING 85
SWIDTH 833 0
DWIDTH 27 0
BBX 27 23 0 0
BITMAP
FFF01FE0
FFF01FE0
1FC00780
1F800300
1F800300
1F800300
1F800300
1F800300
1F800300
1F800300
1F800300
1F800300
1F800300
1F800300
1F800300
1F800300
1F800300
0FC00700
0FC00E00
07F01E00
07FFFC00
01FFF000
003F8000
ENDCHAR

STARTCHAR V
ENCODING 86
SWIDTH 729 0
DWIDTH 24 0
BBX 23 23 0 0
BITMAP
FFE0FE
FFE0FE
3F803C
3F8018
1F8018
1FC018
0FC030
0FC030
07E060
07E060
03F040
03F0C0
01F880
01F980
01FD00
00FF00
00FF00
007E00
007E00
003C00
003C00
003C00
001800
ENDCHAR

STARTCHAR W
ENCODING 87
SWIDTH 1031 0
DWIDTH 34 0
BBX 33 23 0 0
BITMAP
FFCFFC3F80
FFCFFC3F80
7F07F80F00
3F03F00E00
3F01F80C00
1F81F80C00
1F80F80C00
1F81FC0800
0FC1FC1800
0FC17E1800
07C37E1800
07E37E3000
07E23F3000
03F63F3000
03F61F6000
03F41FE000
01FC1FC000
01F80FC000
00F80FC000
00F8078000
00F0078000
00F0078000
0070070000
ENDCHAR

STARTCHAR X
ENCODING 88
SWIDTH 781 0
DWIDTH 26 0
BBX 26 23 0 0
BITMAP
FFF8FF00
FFF8FF00
3FC03C00
1FE03800
0FE07000
07F0E000
03F9C000
03F98000
01FF0000
00FE0000
007F0000
007F0000
003F8000
003FC000
006FE000
00CFF000
0187F000
0303F800
0701FC00
0E01FE00
1F01FF00
7FC7FFC0
7FC7FFC0
ENDCHAR

STARTCHAR Y
ENCODING 89
SWIDTH 729 0
DWIDTH 24 0
BBX 24 23 0 0
BITMAP
FFF8FF
FFF8FF
1FC03C
1FC038
0FC030
0FE030
07E060
07F060
03F0C0
01F880
01F980
00FF00
00FF00
007E00
007E00
007E00
007E00
007E00
007E00
007E00
007E00
03FFC0
03FFC0
ENDCHAR

STARTCHAR Z
ENCODING 90
SWIDTH 687 0
DWIDTH 23 0
BBX 21 23 1 0
BITMAP
7FFFF0
7FFFF0
7C0FE0
780FE0
701FC0
003F80
003F80
007F00
00FE00
00FE00
01FC00
01F800
03F800
07F000
07E000
0FE000
1FC000
1F8038
3F8070
7F00F0
7E01F0
FFFFF0
FFFFF0
ENDCHAR

STARTCHAR bracketleft
ENCODING 91
SWIDTH 396 0
DWIDTH 13 0
BBX 9 29 2 -6
BITMAP
FF80
FF80
F800
F800
F800
F800
F800
F800
F800
F800
F800
F800
F800
F800
F800
F800
F800
F800
F800
F800
F800
F800
F800
F800
F800
F800
F800
FF80
FF80
ENDCHAR

STARTCHAR backslash
ENCODING 92
SWIDTH 281 0
DWIDTH 9 0
BBX 9 22 0 0
BITMAP
C000
6000
6000
6000
3000
3000
3000
1800
1800
1800
1C00
0C00
0C00
0C00
0600
0600
0600
0300
0300
0300
0180
0180
ENDCHAR

STARTCHAR bracketright
ENCODING 93
SWIDTH 396 0
DWIDTH 13 0
BBX 9 29 1 -6
BITMAP
FF80
FF80
0F80
0F80
0F80
0F80
0F80
0F80
0F80
0F80
0F80
0F80
0F80
0F80
0F80
0F80
0F80
0F80
0F80
0F80
0F80
0F80
0F80
0F80
0F80
0F80
0F80
FF80
FF80
ENDCHAR

STARTCHAR asciicircum
ENCODING 94
SWIDTH 583 0
DWIDTH 19 0
BBX 15 11 2 11
BITMAP
0180
0380
07C0
06E0
0EE0
0C70
1C30
1838
3018
701C
E00E
ENDCHAR

STARTCHAR underscore
ENCODING 95
SWIDTH 500 0
DWIDTH 17 0
BBX 17 2 0 -6
BITMAP
FFFF80
FFFF80
ENDCHAR

STARTCHAR quoteleft
ENCODING 96
SWIDTH 344 0
DWIDTH 11 0
BBX 7 10 3 13
BITMAP
1C
38
70
E0
E0
FC
FE
FE
7C
3C
ENDCHAR

STARTCHAR a
ENCODING 97
SWIDTH 562 0
DWIDTH 19 0
BBX 17 15 1 0
BITMAP
0FF000
3FFC00
7C7E00
F83E00
F83E00
E03E00
00FE00
0FFE00
3E3E00
7C3E00
F83E00
F83E80
FCFF80
7FDF80
3F1F00
ENDCHAR

STARTCHAR b
ENCODING 98
SWIDTH 604 0
DWIDTH 20 0
BBX 19 23 0 0
BITMAP
060000
3E0000
FE0000
7E0000
3E0000
3E0000
3E0000
3E0000
3E3E00
3EFF80
3FFFC0
3F0FC0
3E07E0
3E07E0
3E03E0
3E03E0
3E03E0
3E03E0
3E07C0
3E0780
3F0F80
0FFE00
01F800
ENDCHAR

STARTCHAR c
ENCODING 99
SWIDTH 521 0
DWIDTH 17 0
BBX 15 15 1 0
BITMAP
03F0
0FFC
3C3C
383E
781E
781C
F800
F800
F800
FC00
7E04
7F0E
3FFC
1FF8
0FE0
ENDCHAR

STARTCHAR d
ENCODING 100
SWIDTH 615 0
DWIDTH 20 0
BBX 19 23 1 0
BITMAP
000180
001F80
007F80
003F80
000F80
000F80
000F80
000F80
03CF80
0FFF80
3E1F80
7C0F80
7C0F80
F80F80
F80F80
F80F80
F80F80
FC0F80
FC0F80
7E1F80
3FFFC0
3FEFE0
0F8F80
ENDCHAR

STARTCHAR e
ENCODING 101
SWIDTH 521 0
DWIDTH 17 0
BBX 15 15 1 0
BITMAP
03C0
1FF8
3C7C
783C
783E
7FFE
FFFE
F800
F800
FC00
7E02
7F0E
3FFC
3FF8
0FE0
ENDCHAR

STARTCHAR f
ENCODING 102
SWIDTH 354 0
DWIDTH 12 0
BBX 15 23 1 0
BITMAP
01F8
07FC
0E7E
1E3E
1E1C
3E00
3E00
3E00
FFC0
FFC0
3E00
3E00
3E00
3E00
3E00
3E00
3E00
3E00
3E00
3E00
7F00
FFC0
FFC0
ENDCHAR

STARTCHAR g
ENCODING 103
SWIDTH 552 0
DWIDTH 18 0
BBX 16 21 2 -6
BITMAP
0FE0
3FFF
787F
F87F
F87C
F87C
F87C
7C78
3FF0
1F80
7000
7000
FFF8
FFFC
7FFE
1FFE
600E
E00C
E01C
7FF0
1FC0
ENDCHAR

STARTCHAR h
ENCODING 104
SWIDTH 625 0
DWIDTH 21 0
BBX 19 23 1 0
BITMAP
060000
7E0000
FE0000
7E0000
3E0000
3E0000
3E0000
3E0000
3E7E00
3EFF00
3FFF80
3F1F80
3E0F80
3E0F80
3E0F80
3E0F80
3E0F80
3E0F80
3E0F80
3E0F80
3E0FC0
FFBFE0
FFBFE0
ENDCHAR

STARTCHAR i
ENCODING 105
SWIDTH 333 0
DWIDTH 11 0
BBX 10 23 0 0
BITMAP
0C00
1E00
3F00
3F00
1E00
0C00
0000
0000
0F00
FF00
FF00
3F00
1F00
1F00
1F00
1F00
1F00
1F00
1F00
1F00
1F80
FFC0
FFC0
ENDCHAR

STARTCHAR j
ENCODING 106
SWIDTH 313 0
DWIDTH 10 0
BBX 8 29 0 -6
BITMAP
0C
1E
3F
3F
1E
0C
00
00
0F
7F
FF
3F
1F
1F
1F
1F
1F
1F
1F
1F
1F
1F
1F
1E
3E
3C
78
F0
40
ENDCHAR

STARTCHAR k
ENCODING 107
SWIDTH 552 0
DWIDTH 18 0
BBX 18 23 0 0
BITMAP
0E0000
7E0000
FE0000
FE0000
3E0000
3E0000
3E0000
3E0000
3E7F80
3E7F80
3E3C00
3E3000
3E6000
3EE000
3FF000
3FF800
3EFC00
3EFE00
3E7F00
3E3F80
3E1F80
FF8FC0
FF8380
ENDCHAR

STARTCHAR l
ENCODING 108
SWIDTH 312 0
DWIDTH 10 0
BBX 10 23 0 0
BITMAP
0F00
7F00
FF00
3F00
1F00
1F00
1F00
1F00
1F00
1F00
1F00
1F00
1F00
1F00
1F00
1F00
1F00
1F00
1F00
1F00
3F80
FFC0
FFC0
ENDCHAR

STARTCHAR m
ENCODING 109
SWIDTH 979 0
DWIDTH 32 0
BBX 31 15 1 0
BITMAP
1E3E07C0
FEFF9FF0
FEFFBFF8
7F0FE1F8
3E07C0F8
3E07C0F8
3E07C0F8
3E07C0F8
3E07C0F8
3E07C0F8
3E07C0F8
3E07C0F8
7E0FC1FC
FF9FFBFE
FF9FFBFE
ENDCHAR

STARTCHAR n
ENCODING 110
SWIDTH 625 0
DWIDTH 21 0
BBX 19 15 1 0
BITMAP
1E3C00
FEFF00
FEFF80
7F1F80
3E0F80
3E0F80
3E0F80
3E0F80
3E0F80
3E0F80
3E0F80
3E0F80
3E0F80
FFBFE0
FFBFE0
ENDCHAR

STARTCHAR o
ENCODING 111
SWIDTH 573 0
DWIDTH 19 0
BBX 16 15 1 0
BITMAP
03E0
1FF8
3C3C
783E
781E
F81F
F81F
F81F
F81F
F81F
FC1E
7C1E
3C3C
1FF8
03C0
ENDCHAR

STARTCHAR p
ENCODING 112
SWIDTH 615 0
DWIDTH 20 0
BBX 18 21 1 -6
BITMAP
0E7C00
7EFF00
FFFF80
7F1F80
3E0FC0
3E07C0
3E07C0
3E07C0
3E07C0
3E07C0
3E0780
3E0F80
3F1F00
3FFC00
3FF000
3E0000
3E0000
3E0000
7F0000
FF8000
FF8000
ENDCHAR

STARTCHAR q
ENCODING 113
SWIDTH 615 0
DWIDTH 20 0
BBX 18 21 2 -6
BITMAP
03E300
0FFF00
3C3F00
7C1F00
781F00
F81F00
F81F00
F81F00
F81F00
FC1F00
FC1F00
7E3F00
7FFF00
3FDF00
0F9F00
001F00
001F00
001F00
001F00
007FC0
007FC0
ENDCHAR

STARTCHAR r
ENCODING 114
SWIDTH 479 0
DWIDTH 16 0
BBX 16 15 0 0
BITMAP
0F1E
7F3F
FF7F
3F7F
1F9E
1F86
1F00
1F00
1F00
1F00
1F00
1F00
3F00
7FE0
7FE0
ENDCHAR

STARTCHAR s
ENCODING 115
SWIDTH 458 0
DWIDTH 15 0
BBX 12 15 2 0
BITMAP
1F00
7FE0
E0E0
E060
F020
FE00
FFC0
7FE0
1FF0
03F0
C0F0
E070
F0F0
FFE0
1F80
ENDCHAR

STARTCHAR t
ENCODING 116
SWIDTH 375 0
DWIDTH 12 0
BBX 11 19 1 0
BITMAP
0600
0600
0E00
3E00
FFE0
FFE0
3E00
3E00
3E00
3E00
3E00
3E00
3E00
3E00
3E00
3E00
3FE0
1FE0
0F80
ENDCHAR

STARTCHAR u
ENCODING 117
SWIDTH 625 0
DWIDTH 21 0
BBX 19 15 1 0
BITMAP
FE3F80
FE3F80
7E0F80
3E0F80
3E0F80
3E0F80
3E0F80
3E0F80
3E0F80
3E0F80
3E0F80
3F1F80
1FF7E0
1FEFE0
078F80
ENDCHAR

STARTCHAR v
ENCODING 118
SWIDTH 542 0
DWIDTH 18 0
BBX 18 15 0 0
BITMAP
FF8FC0
FF8FC0
3E0380
3F0300
1F0300
1F8600
0F8400
0FCC00
07C800
07F800
03F000
03F000
01E000
01E000
00C000
ENDCHAR

STARTCHAR w
ENCODING 119
SWIDTH 771 0
DWIDTH 25 0
BBX 25 15 1 0
BITMAP
FE7F9F80
FE7F9F80
7C3F0700
7C1F0600
3E0F0600
3E1F8C00
1F1F8C00
1F37D800
1F37D800
0FE3F000
0FC3F000
07C1E000
0781E000
0380E000
0300C000
ENDCHAR

STARTCHAR x
ENCODING 120
SWIDTH 552 0
DWIDTH 18 0
BBX 18 15 0 0
BITMAP
FF9FC0
FF9FC0
3F0F00
1F0C00
0F9800
07F000
07E000
01F000
03F800
077C00
0E7E00
1C3F00
3C3F80
FE7FC0
FE7FC0
ENDCHAR

STARTCHAR y
ENCODING 121
SWIDTH 542 0
DWIDTH 18 0
BBX 18 21 0 -6
BITMAP
FF8FC0
FF8FC0
3E0380
3E0300
1F0300
1F8600
0F8600
07CC00
07CC00
03F800
03F800
01F000
01F000
00E000
00E000
004000
38C000
3DC000
7F8000
3F0000
1E0000
ENDCHAR

STARTCHAR z
ENCODING 122
SWIDTH 510 0
DWIDTH 17 0
BBX 15 16 1 0
BITMAP
C000
FFFE
FFFE
F0FC
E1F8
C1F0
03F0
07E0
0FC0
1F80
1F80
3F06
7E0E
FC3E
FFFC
FFFC
ENDCHAR

STARTCHAR braceleft
ENCODING 123
SWIDTH 396 0
DWIDTH 13 0
BBX 9 29 2 -7
BITMAP
0780
0E00
1C00
3C00
3C00
3C00
3C00
3C00
1C00
1C00
1C00
1800
3000
E000
C000
3000
1800
1C00
1C00
1C00
1C00
1C00
3C00
3C00
3C00
1C00
1C00
0700
0180
ENDCHAR

STARTCHAR bar
ENCODING 124
SWIDTH 219 0
DWIDTH 7 0
BBX 2 29 3 -7
BITMAP
C0
C0
C0
C0
C0
C0
C0
C0
C0
C0
C0
C0
C0
C0
C0
C0
C0
C0
C0
C0
C0
C0
C0
C0
C0
C0
C0
C0
C0
ENDCHAR

STARTCHAR braceright
ENCODING 125
SWIDTH 396 0
DWIDTH 13 0
BBX 9 29 2 -7
BITMAP
F000
3800
1C00
1E00
1E00
1E00
1E00
1C00
1C00
1C00
1C00
0C00
0600
0380
0180
0600
0E00
1C00
1C00
1C00
1E00
1E00
1E00
1E00
1E00
1C00
1800
7000
C000
ENDCHAR

STARTCHAR asciitilde
ENCODING 126
SWIDTH 521 0
DWIDTH 17 0
BBX 16 6 1 8
BITMAP
0003
3E02
7FC6
FFFE
C7FC
80F8
ENDCHAR

STARTCHAR space
ENCODING 160
SWIDTH 250 0
DWIDTH 9 0
BBX 0 0 0 0
BITMAP
ENDCHAR

STARTCHAR afii10023
ENCODING 161
SWIDTH 750 0
DWIDTH 25 0
BBX 23 29 1 0
BITMAP
0701C0
0F83E0
0F83E0
0F83E0
0701C0
000000
FFFFFC
FFFFFC
1F807C
1F803C
1F801C
1F8000
1F8000
1F8060
1F8060
1F80E0
1FFFE0
1FFFE0
1F80E0
1F8060
1F8060
1F8000
1F8000
1F800E
1F800E
1F803E
3FC07E
FFFFFC
FFFFFC
ENDCHAR

STARTCHAR afii10051
ENCODING 162
SWIDTH 850 0
DWIDTH 28 0
BBX 26 23 1 0
BITMAP
FFFFE000
FFFFE000
E3F1E000
C3F0E000
C3F06000
03F00000
03F00000
03F00000
03F0F800
03F3FE00
03F7FF00
03FC3F80
03F01F80
03F00FC0
03F00FC0
03F00FC0
03F00FC0
03F00FC0
03F1CF80
03F1CF80
07F1CF00
1FFCFE00
1FFC7800
ENDCHAR

STARTCHAR afii10052
ENCODING 163
SWIDTH 646 0
DWIDTH 21 0
BBX 21 29 1 0
BITMAP
003FC0
007E00
007800
00E000
000000
000000
FFFFF0
FFFFF0
1FC0F0
1F8070
1F8030
1F8018
1F8000
1F8000
1F8000
1F8000
1F8000
1F8000
1F8000
1F8000
1F8000
1F8000
1F8000
1F8000
1F8000
1F8000
3FC000
FFF000
FFF000
ENDCHAR

STARTCHAR afii10053
ENCODING 164
SWIDTH 813 0
DWIDTH 27 0
BBX 23 23 2 0
BITMAP
003F80
01FFF8
07C07C
1F803E
3F001E
3E000E
7E0006
7E0000
FE0000
FC0000
FFFF80
FFFF80
FC0000
FC0000
FE0000
7E0000
7E001C
7F003E
3F003E
1F807E
0FC0FE
03FFF8
003FC0
ENDCHAR

STARTCHAR afii10054
ENCODING 165
SWIDTH 656 0
DWIDTH 22 0
BBX 18 23 2 0
BITMAP
07E000
1FFE00
3C1F00
780F00
F80780
F80380
FC0380
FF0000
FFC000
7FF000
3FFC00
1FFE00
07FF00
01FF80
007FC0
001FC0
E00FC0
E00FC0
F00F80
F80F80
FC1F00
7FFE00
07F000
ENDCHAR

STARTCHAR afii10055
ENCODING 166
SWIDTH 406 0
DWIDTH 13 0
BBX 12 23 1 0
BITMAP
FFF0
FFF0
1FC0
1F80
1F80
1F80
1F80
1F80
1F80
1F80
1F80
1F80
1F80
1F80
1F80
1F80
1F80
1F80
1F80
1F80
1FC0
FFF0
FFF0
ENDCHAR

STARTCHAR afii10056
ENCODING 167
SWIDTH 406 0
DWIDTH 13 0
BBX 15 29 -1 0
BITMAP
701C
F83E
F83E
F83E
701C
0000
7FF8
7FF8
0FE0
0FC0
0FC0
0FC0
0FC0
0FC0
0FC0
0FC0
0FC0
0FC0
0FC0
0FC0
0FC0
0FC0
0FC0
0FC0
0FC0
0FC0
0FE0
7FF8
7FF8
ENDCHAR

STARTCHAR afii10057
ENCODING 168
SWIDTH 406 0
DWIDTH 13 0
BBX 15 29 -2 -6
BITMAP
1FFE
1FFE
03F0
03F0
03F0
03F0
03F0
03F0
03F0
03F0
03F0
03F0
03F0
03F0
03F0
03F0
03F0
03F0
03F0
03F0
03F0
03F0
03F0
03F0
03E0
73E0
F3C0
FF80
7E00
ENDCHAR

STARTCHAR afii10058
ENCODING 169
SWIDTH 1086 0
DWIDTH 36 0
BBX 34 23 1 0
BITMAP
0FFFFF8000
0FFFFF8000
01C1FE0000
0080FC0000
0080FC0000
0080FC0000
0080FC0000
0080FC0000
0080FC0000
0080FC0000
0080FFF800
0080FFFE00
0080FC3F80
0080FC1F80
0080FC0FC0
0080FC0FC0
0080FC0FC0
6180FC0FC0
F980FC0FC0
FF00FC1F80
FF01FC3F80
FE07FFFE00
3C07FFF800
ENDCHAR

STARTCHAR afii10059
ENCODING 170
SWIDTH 1095 0
DWIDTH 36 0
BBX 35 23 1 0
BITMAP
FFF7FF8000
FFF7FF8000
1FC0FE0000
1F80FC0000
1F80FC0000
1F80FC0000
1F80FC0000
1F80FC0000
1F80FC0000
1F80FC0000
1FFFFFF800
1FFFFFFF00
1F80FC1FC0
1F80FC0FC0
1F80FC07E0
1F80FC07E0
1F80FC07E0
1F80FC07E0
1F80FC0FE0
1F80FC0FE0
3FC1FC1FC0
FFF7FFFF80
FFF7FFFC00
ENDCHAR

STARTCHAR afii10060
ENCODING 171
SWIDTH 854 0
DWIDTH 28 0
BBX 27 23 1 0
BITMAP
FFFFF800
FFFFF800
F1F87800
E1F83800
C1F83800
01F80000
01F80000
01F80000
01F80000
01F87C00
01F9FF00
01FBFF80
01FE1F80
01FC1F80
01F81F80
01F81F80
01F81F80
01F81F80
01F81F80
01F81F80
03F81F80
0FFE7FE0
0FFE7FE0
ENDCHAR

STARTCHAR afii10061
ENCODING 172
SWIDTH 781 0
DWIDTH 26 0
BBX 25 29 1 0
BITMAP
000FF000
001FC000
001F0000
003C0000
00300000
00000000
FFF03C00
FFF07F00
1FC0FF00
1F80FF00
1F808E00
1F818000
1F818000
1F810000
1F830000
1F820000
1F870000
1FFF8000
1FBFC000
1F9FC000
1F8FE000
1F87E000
1F87F000
1F83F800
1F83F800
1F81FC00
1FC0FE00
FFF0FF80
FFF07F80
ENDCHAR

STARTCHAR hyphen
ENCODING 173
SWIDTH 458 0
DWIDTH 15 0
BBX 11 4 2 6
BITMAP
FFE0
FFE0
FFE0
FFE0
ENDCHAR

STARTCHAR afii10062
ENCODING 174
SWIDTH 750 0
DWIDTH 25 0
BBX 23 30 1 0
BITMAP
0E00F0
1F01F0
1F81F0
0FC7E0
03FF80
000000
000000
FFE0FE
FFE0FE
7F8038
3F8038
1F8030
1FC030
0FC020
0FE060
07E040
07F0C0
03F8C0
01F980
01FD80
00FD00
00FF00
007F00
007E00
083E00
3C3C00
3E1C00
3F1800
1FF000
0FC000
ENDCHAR

STARTCHAR afii10145
ENCODING 175
SWIDTH 854 0
DWIDTH 28 0
BBX 26 29 1 -6
BITMAP
FFF3FFC0
FFF3FFC0
3FC07F00
1F807E00
1F807E00
1F807E00
1F807E00
1F807E00
1F807E00
1F807E00
1F807E00
1F807E00
1F807E00
1F807E00
1F807E00
1F807E00
1F807E00
1F807E00
1F807E00
1F807E00
3FC0FF00
FFFFFFC0
FFFFFFC0
003F0000
003F0000
003F0000
003F0000
003F0000
003F0000
ENDCHAR

STARTCHAR afii10017
ENCODING 176
SWIDTH 781 0
DWIDTH 26 0
BBX 26 23 0 0
BITMAP
007F0000
003F0000
003F8000
007F8000
006F8000
004FC000
00CFC000
00CFC000
0187E000
0187E000
0103F000
0303F000
03FFF000
07FFF800
0601F800
0601FC00
0C00FC00
0C00FC00
0C007E00
1C007E00
3C00FF00
FF03FFC0
FF03FFC0
ENDCHAR

STARTCHAR afii10018
ENCODING 177
SWIDTH 740 0
DWIDTH 24 0
BBX 22 23 1 0
BITMAP
FFFFF0
FFFFF0
3FC1F0
1F8070
1F8030
1F8038
1F8000
1F8000
1F8000
1F8000
1FFF80
1FFFE0
1F83F8
1F81F8
1F80FC
1F80FC
1F80FC
1F80FC
1F80FC
1F81FC
3F83F8
FFFFF0
FFFF80
ENDCHAR

STARTCHAR afii10019
ENCODING 178
SWIDTH 781 0
DWIDTH 26 0
BBX 24 23 1 0
BITMAP
FFFFC0
FFFFF8
1F81FC
1F80FE
1F807E
1F807E
1F807E
1F807E
1F80FC
1F81F8
1FFF80
1FFFF0
1F81FC
1F807E
1F807F
1F803F
1F803F
1F803F
1F807F
1F807E
3FC0FC
FFFFF8
FFFFC0
ENDCHAR

STARTCHAR afii10020
ENCODING 179
SWIDTH 646 0
DWIDTH 21 0
BBX 21 23 1 0
BITMAP
FFFFF0
FFFFF0
1FC0F0
1F8070
1F8030
1F8018
1F8000
1F8000
1F8000
1F8000
1F8000
1F8000
1F8000
1F8000
1F8000
1F8000
1F8000
1F8000
1F8000
1F8000
3FC000
FFF000
FFF000
ENDCHAR

STARTCHAR afii10021
ENCODING 180
SWIDTH 781 0
DWIDTH 26 0
BBX 25 29 0 -6
BITMAP
1FFFFF80
1FFFFF80
0701FE00
0600FC00
0200FC00
0200FC00
0200FC00
0200FC00
0200FC00
0200FC00
0200FC00
0200FC00
0600FC00
0600FC00
0600FC00
0600FC00
0400FC00
0400FC00
0C00FC00
0C00FC00
1C01FE00
FFFFFF80
FFFFFF80
FC000F80
F0000380
E0000380
C0000180
C0000180
C0000080
ENDCHAR

STARTCHAR afii10022
ENCODING 181
SWIDTH 750 0
DWIDTH 25 0
BBX 23 23 1 0
BITMAP
FFFFFC
FFFFFC
1F807C
1F803C
1F801C
1F8000
1F8000
1F8060
1F8060
1F80E0
1FFFE0
1FFFE0
1F80E0
1F8060
1F8060
1F8000
1F8000
1F8006
1F800E
1F801E
3FC07E
FFFFFE
FFFFFC
ENDCHAR

STARTCHAR afii10024
ENCODING 182
SWIDTH 1094 0
DWIDTH 36 0
BBX 34 23 1 0
BITMAP
3C1FFE0F80
7E1FFE1F80
FF07F83FC0
7F03F03F80
3103F02300
0183F06000
0183F06000
0183F06000
0083F04000
00C3F0C000
00E3F1C000
01FFFFE000
03FFFFF000
07F3F3F800
07E3F1F800
0FE3F1FC00
0FC3F0FC00
1FC3F0FE00
1F83F07E00
3F83F07F00
7F07F83F80
FF1FFE3FC0
FE1FFE1FC0
ENDCHAR

STARTCHAR afii10025
ENCODING 183
SWIDTH 750 0
DWIDTH 25 0
BBX 22 23 1 0
BITMAP
01FE00
3FFFC0
7E07F0
7803F8
7001F8
6001F8
6001F8
0001F8
0003F0
0007E0
03FE00
03FF80
0003F0
0001F8
0000FC
0000FC
F000FC
F800FC
F801FC
FC01F8
7E07F0
1FFFC0
01FC00
ENDCHAR

STARTCHAR afii10026
ENCODING 184
SWIDTH 854 0
DWIDTH 28 0
BBX 26 23 1 0
BITMAP
FFF3FFC0
FFF3FFC0
3F807F00
1F807E00
1F807E00
1F80FE00
1F80FE00
1F81BE00
1F837E00
1F827E00
1F867E00
1F8C7E00
1F987E00
1F907E00
1FB07E00
1FE07E00
1FC07E00
1FC07E00
1F807E00
1F807E00
3F80FF00
FFF3FFC0
FFF3FFC0
ENDCHAR

STARTCHAR afii10027
ENCODING 185
SWIDTH 854 0
DWIDTH 28 0
BBX 26 30 1 0
BITMAP
03807800
07C07C00
07C0F800
03E1F800
00FFE000
00000000
00000000
FFF3FFC0
FFF3FFC0
3F807F00
1F807E00
1F807E00
1F80FE00
1F80FE00
1F81BE00
1F837E00
1F827E00
1F867E00
1F8C7E00
1F987E00
1F907E00
1FB07E00
1FE07E00
1FC07E00
1FC07E00
1F807E00
1F807E00
3F80FF00
FFF3FFC0
FFF3FFC0
ENDCHAR

STARTCHAR afii10028
ENCODING 186
SWIDTH 781 0
DWIDTH 26 0
BBX 25 23 1 0
BITMAP
FFF03C00
FFF07F00
1FC0FF00
1F80FF00
1F808E00
1F818000
1F818000
1F810000
1F830000
1F820000
1F870000
1FFF8000
1FBFC000
1F9FC000
1F8FE000
1F87E000
1F87F000
1F83F800
1F83F800
1F81FC00
1FC0FE00
FFF0FF80
FFF07F80
ENDCHAR

STARTCHAR afii10029
ENCODING 187
SWIDTH 833 0
DWIDTH 27 0
BBX 27 23 0 0
BITMAP
07FFFFE0
07FFFFE0
00E07F80
00403F00
00403F00
00403F00
00403F00
00403F00
00403F00
00403F00
00403F00
00403F00
00403F00
00403F00
00403F00
00403F00
00403F00
70403F00
F8C03F00
FF803F00
FF807F80
7F01FFE0
3E01FFE0
ENDCHAR

STARTCHAR afii10030
ENCODING 188
SWIDTH 1010 0
DWIDTH 33 0
BBX 33 23 0 0
BITMAP
1FE003FE00
1FE003FE00
07F003F000
07F003F000
07F007F000
07F807F000
06F80DF000
06F80DF800
04FC19F800
0CFC19F800
0C7E31F800
0C7E31F800
0C7F70F800
083F60FC00
183FE0FC00
181FC0FC00
181FC0FC00
180F80FC00
180F80FC00
380780FE00
380700FE00
FF0707FF80
FF0707FF80
ENDCHAR

STARTCHAR afii10031
ENCODING 189
SWIDTH 875 0
DWIDTH 29 0
BBX 27 23 1 0
BITMAP
FFF1FFE0
FFF1FFE0
1F803F80
1F803F00
1F803F00
1F803F00
1F803F00
1F803F00
1F803F00
1F803F00
1FFFFF00
1FFFFF00
1F803F00
1F803F00
1F803F00
1F803F00
1F803F00
1F803F00
1F803F00
1F803F00
1FC03F80
FFF1FFE0
FFF1FFE0
ENDCHAR

STARTCHAR afii10032
ENCODING 190
SWIDTH 875 0
DWIDTH 29 0
BBX 25 23 2 0
BITMAP
007F0000
03FFE000
07C1F800
1F00FC00
3F007E00
3E003F00
7E003F00
7E003F80
FC001F80
FC001F80
FC001F80
FC001F80
FC001F80
FC001F80
FE001F80
FE001F00
7E003F00
7E003E00
3F007E00
1F807C00
0FC1F000
03FFE000
003E0000
ENDCHAR

STARTCHAR afii10033
ENCODING 191
SWIDTH 854 0
DWIDTH 28 0
BBX 26 23 1 0
BITMAP
FFFFFFC0
FFFFFFC0
3FC07F00
1F807E00
1F807E00
1F807E00
1F807E00
1F807E00
1F807E00
1F807E00
1F807E00
1F807E00
1F807E00
1F807E00
1F807E00
1F807E00
1F807E00
1F807E00
1F807E00
1F807E00
3F807F00
FFF3FFC0
FFF3FFC0
ENDCHAR

STARTCHAR afii10034
ENCODING 192
SWIDTH 729 0
DWIDTH 24 0
BBX 23 23 1 0
BITMAP
FFFFC0
FFFFF0
1F81FC
1F80FC
1F80FE
1F807E
1F807E
1F807E
1F80FE
1F80FC
1F81FC
1F9FF0
1F9F80
1F8000
1F8000
1F8000
1F8000
1F8000
1F8000
1F8000
3FC000
FFF000
FFF000
ENDCHAR

STARTCHAR afii10035
ENCODING 193
SWIDTH 802 0
DWIDTH 26 0
BBX 23 23 2 0
BITMAP
003F80
01FFF8
07C0FC
0F803C
1F001E
3E000E
7E000E
7E0000
FC0000
FC0000
FC0000
FC0000
FC0000
FC0000
FE0000
FE0006
7E000E
3F000E
3F001E
1F803E
07E07E
01FFF8
001F80
ENDCHAR

STARTCHAR afii10036
ENCODING 194
SWIDTH 740 0
DWIDTH 24 0
BBX 22 23 1 0
BITMAP
FFFFFC
FFFFFC
F0FC3C
E0FC1C
C0FC0C
00FC00
00FC00
00FC00
00FC00
00FC00
00FC00
00FC00
00FC00
00FC00
00FC00
00FC00
00FC00
00FC00
00FC00
00FC00
00FE00
07FF80
07FF80
ENDCHAR

STARTCHAR afii10037
ENCODING 195
SWIDTH 750 0
DWIDTH 25 0
BBX 23 23 1 0
BITMAP
FFE0FE
FFE0FE
7F8038
3F8038
1F8030
1FC030
0FC020
0FE060
07E040
07F0C0
03F8C0
01F980
01FD80
00FD00
00FF00
007F00
007E00
083E00
3C3C00
3E1C00
3F1800
1FF000
0FC000
ENDCHAR

STARTCHAR afii10038
ENCODING 196
SWIDTH 974 0
DWIDTH 32 0
BBX 31 23 1 0
BITMAP
007FF800
007FF800
000FC000
000FC000
03FFFF00
0FF7DFE0
3F0FC1F8
3E0FC0F8
7C0FC07C
FC0FC07E
FC0FC07E
FC0FC07E
FC0FC07E
7C0FC07E
7C0FC07C
3E0FC0F8
1F0FC1F0
0FFFFFE0
01FFFE00
000FC000
000FC000
007FF800
007FF800
ENDCHAR

STARTCHAR afii10039
ENCODING 197
SWIDTH 781 0
DWIDTH 26 0
BBX 26 23 0 0
BITMAP
FFF8FF00
FFF8FF00
3FC03C00
1FE03800
0FE07000
07F0E000
03F9C000
03F98000
01FF0000
00FE0000
007F0000
007F0000
003F8000
003FC000
006FE000
00CFF000
0187F000
0303F800
0701FC00
0E01FE00
1F01FF00
7FC7FFC0
7FC7FFC0
ENDCHAR

STARTCHAR afii10040
ENCODING 198
SWIDTH 854 0
DWIDTH 28 0
BBX 26 29 1 -6
BITMAP
FFF3FFC0
FFF3FFC0
1F807F00
1F807E00
1F807E00
1F807E00
1F807E00
1F807E00
1F807E00
1F807E00
1F807E00
1F807E00
1F807E00
1F807E00
1F807E00
1F807E00
1F807E00
1F807E00
1F807E00
1F807E00
3FC0FF00
FFFFFFC0
FFFFFFC0
000007C0
000003C0
000001C0
000000C0
000000C0
000000C0
ENDCHAR

STARTCHAR afii10041
ENCODING 199
SWIDTH 854 0
DWIDTH 28 0
BBX 27 23 0 0
BITMAP
FFF1FFE0
FFF1FFE0
1FC07F80
1F803F00
1F803F00
1F803F00
1F803F00
1F803F00
1F803F00
1F803F00
1F807F00
0FC0FF00
0FE3BF00
07FF3F00
01FC3F00
00003F00
00003F00
00003F00
00003F00
00003F00
00007F80
0001FFE0
0001FFE0
ENDCHAR

STARTCHAR afii10042
ENCODING 200
SWIDTH 1125 0
DWIDTH 37 0
BBX 36 23 0 0
BITMAP
FFE7FE7FF0
FFE7FE7FF0
1F81F81F80
1F81F81F80
1F81F81F80
1F81F81F80
1F81F81F80
1F81F81F80
1F81F81F80
1F81F81F80
1F81F81F80
1F81F81F80
1F81F81F80
1F81F81F80
1F81F81F80
1F81F81F80
1F81F81F80
1F81F81F80
1F81F81F80
1F81F81F80
1F83F83FC0
FFFFFFFFF0
FFFFFFFFF0
ENDCHAR

STARTCHAR afii10043
ENCODING 201
SWIDTH 1125 0
DWIDTH 37 0
BBX 36 29 0 -6
BITMAP
FFE7FE7FF0
FFE7FE7FF0
1F81F81FC0
1F81F81F80
1F81F81F80
1F81F81F80
1F81F81F80
1F81F81F80
1F81F81F80
1F81F81F80
1F81F81F80
1F81F81F80
1F81F81F80
1F81F81F80
1F81F81F80
1F81F81F80
1F81F81F80
1F81F81F80
1F81F81F80
1F81F81F80
1F81F83FC0
FFFFFFFFF0
FFFFFFFFF0
00000001F0
00000000F0
0000000070
0000000030
0000000030
0000000030
ENDCHAR

STARTCHAR afii10044
ENCODING 202
SWIDTH 832 0
DWIDTH 27 0
BBX 26 23 1 0
BITMAP
FFFF8000
FFFF8000
F0FE0000
E0FC0000
C0FC0000
80FC0000
00FC0000
00FC0000
00FC0000
00FC0000
00FFF000
00FFFE00
00FC3F80
00FC1F80
00FC0FC0
00FC0FC0
00FC0FC0
00FC0FC0
00FC0FC0
00FC1F80
01FC3F80
07FFFF00
07FFF800
ENDCHAR

STARTCHAR afii10045
ENCODING 203
SWIDTH 1125 0
DWIDTH 37 0
BBX 35 23 1 0
BITMAP
FFF001FFE0
FFF001FFE0
1F80007F00
1F80003F00
1F80003F00
1F80003F00
1F80003F00
1F80003F00
1F80003F00
1F80003F00
1FFF803F00
1FFFE03F00
1F83F83F00
1F81F83F00
1F80FC3F00
1F80FC3F00
1F80FC3F00
1F80FC3F00
1F80FC3F00
1F81F83F00
3F83F87F80
FFFFF1FFE0
FFFFC1FFE0
ENDCHAR

STARTCHAR afii10046
ENCODING 204
SWIDTH 721 0
DWIDTH 24 0
BBX 22 23 1 0
BITMAP
FFF000
FFF000
3FC000
1F8000
1F8000
1F8000
1F8000
1F8000
1F8000
1F8000
1FFF80
1FFFE0
1F83F8
1F81F8
1F80FC
1F80FC
1F80FC
1F80FC
1F80FC
1F81F8
3F83F8
FFFFF0
FFFF80
ENDCHAR

STARTCHAR afii10047
ENCODING 205
SWIDTH 802 0
DWIDTH 26 0
BBX 23 23 2 0
BITMAP
0FFC00
7E0F80
F807C0
F003F0
E001F8
C000F8
0000FC
0000FC
0000FC
0000FE
03FFFE
03FFFE
0000FE
0000FE
0000FC
0000FC
F000FC
F801F8
F801F8
FC03F0
FE0FC0
3FFF00
07F800
ENDCHAR

STARTCHAR afii10048
ENCODING 206
SWIDTH 1219 0
DWIDTH 40 0
BBX 38 23 1 0
BITMAP
FFF003F800
FFF01FFF00
1FC07C0FC0
1F80F807E0
1F81F003F0
1F83F001F8
1F83E001F8
1F87E001FC
1F87E000FC
1F87E000FC
1FFFE000FC
1FFFE000FC
1F8FE000FC
1F87E000FC
1F87E000FC
1F87F001F8
1F83F001F8
1F83F001F0
1F81F803E0
1F80FC07C0
3FC07E0F80
FFF01FFE00
FFF003F000
ENDCHAR

STARTCHAR afii10049
ENCODING 207
SWIDTH 802 0
DWIDTH 26 0
BBX 24 23 1 0
BITMAP
01FFFF
07FFFF
1FC1FC
1F81F8
3F01F8
3F01F8
3F01F8
3F01F8
1F01F8
1F81F8
0FC1F8
02FFF8
01FFF8
03F9F8
03F1F8
07F1F8
0FE1F8
1FC1F8
1FC1F8
3F81F8
7F01FC
FE0FFF
FC0FFF
ENDCHAR

STARTCHAR afii10065
ENCODING 208
SWIDTH 563 0
DWIDTH 19 0
BBX 17 15 1 0
BITMAP
0FF000
3FFC00
7C7E00
F83E00
F83E00
E03E00
00FE00
0FFE00
3E3E00
7C3E00
F83E00
F83E80
FCFF80
7FDF80
3F1F00
ENDCHAR

STARTCHAR afii10066
ENCODING 209
SWIDTH 583 0
DWIDTH 19 0
BBX 16 23 2 0
BITMAP
0003
07FF
1FFF
3FFE
3FFC
7800
6000
E000
C3E0
CFF8
9C3C
9C3E
B81F
B81F
B81F
B81F
F81F
F81F
7C1E
7C3E
3E3C
1FF8
03C0
ENDCHAR

STARTCHAR afii10067
ENCODING 210
SWIDTH 573 0
DWIDTH 19 0
BBX 17 15 1 0
BITMAP
FFFC00
FFFF00
3E1F80
3E0F80
3E0F80
3E0F00
3FF200
3FFC00
3E1F00
3E0F80
3E0F80
3E0F80
3E1F80
FFFF00
FFF800
ENDCHAR

STARTCHAR afii10068
ENCODING 211
SWIDTH 542 0
DWIDTH 18 0
BBX 16 15 1 0
BITMAP
FFFF
FFFF
3E0F
3E03
3E03
3E00
3E00
3E00
3E00
3E00
3E00
3E00
3E00
FF80
FF80
ENDCHAR

STARTCHAR afii10069
ENCODING 212
SWIDTH 565 0
DWIDTH 19 0
BBX 17 20 1 -5
BITMAP
3FFF80
3FFF80
183E00
183E00
183E00
183E00
183E00
183E00
183E00
183E00
103E00
103E00
303E00
FFFF80
FFFF80
F00380
E00180
C00180
C00080
C00080
ENDCHAR

STARTCHAR afii10070
ENCODING 213
SWIDTH 521 0
DWIDTH 17 0
BBX 15 15 1 0
BITMAP
03C0
1FF8
3C7C
783C
783E
7FFE
FFFE
F800
F800
FC00
7E02
7F0E
3FFC
3FF8
0FE0
ENDCHAR

STARTCHAR afii10072
ENCODING 214
SWIDTH 1021 0
DWIDTH 34 0
BBX 33 15 0 0
BITMAP
380FF81E00
7E0FF83F00
7F03E07F00
3303E06600
0183E0C000
00C3E18000
0063E30000
01FFFFC000
03FFFFE000
07E3E3F000
0FC3E1F800
0F83E0F800
1F03E07C00
FF0FF87F80
FE0FF83F80
ENDCHAR

STARTCHAR afii10073
ENCODING 215
SWIDTH 521 0
DWIDTH 17 0
BBX 15 15 1 0
BITMAP
1FF0
7C7C
703E
703E
603E
007C
07C0
07F0
007C
003E
703E
F03E
F87E
7CFC
1FF0
ENDCHAR

STARTCHAR afii10074
ENCODING 216
SWIDTH 625 0
DWIDTH 21 0
BBX 20 15 0 0
BITMAP
FF9FF0
FF9FF0
3F0FC0
1E0780
1E0F80
1E1B80
1E3780
1E6780
1EC780
1F8780
1F0780
1E0780
3F0FC0
FF9FF0
FF9FF0
ENDCHAR

STARTCHAR afii10075
ENCODING 217
SWIDTH 625 0
DWIDTH 21 0
BBX 20 22 0 0
BITMAP
0E0780
0F0780
0F0780
0F8F00
03FE00
000000
000000
FF9FF0
FF9FF0
3F0FC0
1E0780
1E0F80
1E1B80
1E3780
1E6780
1EC780
1F8780
1F0780
1E0780
3F0FC0
FF9FF0
FF9FF0
ENDCHAR

STARTCHAR afii10076
ENCODING 218
SWIDTH 604 0
DWIDTH 20 0
BBX 19 15 1 0
BITMAP
FF8380
FF87C0
3E0FC0
3E0FC0
3E1800
3E3000
3E7000
3FFC00
3E7E00
3E3E00
3E3F00
3E1F00
3E1F80
FF8FE0
FF87E0
ENDCHAR

STARTCHAR afii10077
ENCODING 219
SWIDTH 573 0
DWIDTH 19 0
BBX 17 15 1 0
BITMAP
3FFF80
3FFF80
0C3E00
0C3E00
0C3E00
083E00
083E00
083E00
083E00
083E00
183E00
F83E00
F87E00
F0FF80
60FF80
ENDCHAR

STARTCHAR afii10078
ENCODING 220
SWIDTH 781 0
DWIDTH 26 0
BBX 25 15 0 0
BITMAP
7F007F00
7F007F00
1F807E00
1F80FE00
17C0BE00
37C1BE00
33E13E00
33F33E00
31F63E00
31FE3E00
20FC3E00
207C3E00
70783E00
F8307F80
F8307F80
ENDCHAR

STARTCHAR afii10079
ENCODING 221
SWIDTH 604 0
DWIDTH 20 0
BBX 20 15 0 0
BITMAP
FF9FF0
FF9FF0
3F0FC0
1E0780
1E0780
1E0780
1E0780
1FFF80
1E0780
1E0780
1E0780
1E0780
3F0FC0
FF9FF0
FF9FF0
ENDCHAR

STARTCHAR afii10080
ENCODING 222
SWIDTH 573 0
DWIDTH 19 0
BBX 16 15 1 0
BITMAP
03E0
1FF8
3C3C
783E
781E
F81F
F81F
F81F
F81F
F81F
FC1E
7C1E
3C3C
1FF8
03C0
ENDCHAR

STARTCHAR afii10081
ENCODING 223
SWIDTH 615 0
DWIDTH 20 0
BBX 19 15 1 0
BITMAP
FFFFE0
FFFFE0
3E0F80
3E0F80
3E0F80
3E0F80
3E0F80
3E0F80
3E0F80
3E0F80
3E0F80
3E0F80
3E0F80
FFBFE0
FFBFE0
ENDCHAR

STARTCHAR afii10082
ENCODING 224
SWIDTH 615 0
DWIDTH 20 0
BBX 18 21 1 -6
BITMAP
0E7C00
7EFF00
FFFF80
7F1F80
3E0FC0
3E07C0
3E07C0
3E07C0
3E07C0
3E07C0
3E0780
3E0F80
3F1F00
3FFC00
3FF000
3E0000
3E0000
3E0000
7F0000
FF8000
FF8000
ENDCHAR

STARTCHAR afii10083
ENCODING 225
SWIDTH 521 0
DWIDTH 17 0
BBX 15 15 1 0
BITMAP
03F0
0FFC
3C3C
383E
781E
781C
F800
F800
F800
FC00
7E04
7F0E
3FFC
1FF8
0FE0
ENDCHAR

STARTCHAR afii10084
ENCODING 226
SWIDTH 583 0
DWIDTH 19 0
BBX 17 15 1 0
BITMAP
FFFF80
FBE780
E3E380
C3E180
C3E080
03E000
03E000
03E000
03E000
03E000
03E000
03E000
03E000
0FF800
0FF800
ENDCHAR

STARTCHAR afii10085
ENCODING 227
SWIDTH 542 0
DWIDTH 18 0
BBX 18 21 0 -6
BITMAP
FF8FC0
FF8FC0
3E0380
3E0300
1F0300
1F8600
0F8600
07CC00
07CC00
03F800
03F800
01F000
01F000
00E000
00E000
004000
38C000
3DC000
7F8000
3F0000
1E0000
ENDCHAR

STARTCHAR afii10086
ENCODING 228
SWIDTH 823 0
DWIDTH 27 0
BBX 25 29 1 -6
BITMAP
000C0000
00FC0000
00FC0000
007C0000
003C0000
003C0000
003C0000
003C0000
0FBDF800
3CFF3E00
387E1E00
783E0F00
783C0F00
F83C0F80
F83C0F80
F83C0F80
F83C0F80
783C0F80
783E0F00
787E1F00
3C7F1E00
1FBDFC00
073C7000
003C0000
003C0000
003C0000
007E0000
00FF8000
00FF8000
ENDCHAR

STARTCHAR afii10087
ENCODING 229
SWIDTH 552 0
DWIDTH 18 0
BBX 18 15 0 0
BITMAP
FF9FC0
FF9FC0
3F0F00
1F0C00
0F9800
07F000
07E000
01F000
03F800
077C00
0E7E00
1C3F00
3C3F80
FE7FC0
FE7FC0
ENDCHAR

STARTCHAR afii10088
ENCODING 230
SWIDTH 615 0
DWIDTH 20 0
BBX 19 20 1 -5
BITMAP
FFBFE0
FFBFE0
3E0F80
3E0F80
3E0F80
3E0F80
3E0F80
3E0F80
3E0F80
3E0F80
3E0F80
3E0F80
3E0F80
FFFFE0
FFFFE0
0001E0
0000E0
000060
000020
000020
ENDCHAR

STARTCHAR afii10089
ENCODING 231
SWIDTH 594 0
DWIDTH 20 0
BBX 19 15 0 0
BITMAP
FFBFE0
FFBFE0
3E0F80
3E0F80
3E0F80
3E0F80
3E0F80
3F1F80
1FFF80
07CF80
000F80
000F80
000F80
007FE0
007FE0
ENDCHAR

STARTCHAR afii10090
ENCODING 232
SWIDTH 1022 0
DWIDTH 34 0
BBX 32 15 1 0
BITMAP
FF9FF1FF
FF9FF1FF
3E07C07C
3E07C07C
3E07C07C
3E07C07C
3E07C07C
3E07C07C
3E07C07C
3E07C07C
3E07C07C
3E07C07C
3E07E0FC
FFFFFFFF
FFFFFFFF
ENDCHAR

STARTCHAR afii10091
ENCODING 233
SWIDTH 1019 0
DWIDTH 34 0
BBX 32 20 1 -5
BITMAP
FF9FF1FF
FF9FF1FF
3E07C07C
3E07C07C
3E07C07C
3E07C07C
3E07C07C
3E07C07C
3E07C07C
3E07C07C
3E07C07C
3E07C07C
3E07E0FC
FFFFFFFF
FFFFFFFF
0000000F
00000003
00000003
00000001
00000001
ENDCHAR

STARTCHAR afii10092
ENCODING 234
SWIDTH 729 0
DWIDTH 24 0
BBX 22 15 1 0
BITMAP
FFFC00
FFFC00
E1F000
C1F000
C1F000
01F000
01FFE0
01FFF8
01F0FC
01F07C
01F07C
01F07C
01F0FC
07FFF8
07FFE0
ENDCHAR

STARTCHAR afii10093
ENCODING 235
SWIDTH 833 0
DWIDTH 27 0
BBX 26 15 1 0
BITMAP
FF807FC0
FF807FC0
3E001F00
3E001F00
3E001F00
3E001F00
3FF81F00
3FFE1F00
3E3F1F00
3E1F1F00
3E1F1F00
3E1F1F00
3E3F1F00
FFFE7FC0
FFF87FC0
ENDCHAR

STARTCHAR afii10094
ENCODING 236
SWIDTH 563 0
DWIDTH 19 0
BBX 17 15 1 0
BITMAP
FF8000
FF8000
3E0000
3E0000
3E0000
3E0000
3FF800
3FFF00
3E1F80
3E0F80
3E0F80
3E0F80
3E1F00
FFFF00
FFF800
ENDCHAR

STARTCHAR afii10095
ENCODING 237
SWIDTH 521 0
DWIDTH 17 0
BBX 15 15 1 0
BITMAP
3FE0
78F8
707C
607C
603E
003E
07FE
07FE
003E
003E
703C
F87C
F878
7CF0
3FC0
ENDCHAR

STARTCHAR afii10096
ENCODING 238
SWIDTH 854 0
DWIDTH 28 0
BBX 26 15 1 0
BITMAP
FF81F000
FF87FE00
3E0F0F00
3E1E0F80
3E3E0FC0
3E3E07C0
3FFE07C0
3FFE07C0
3E3E07C0
3E3E07C0
3E3E0780
3E1F0F80
3E0F0F00
FF87FE00
FF80F000
ENDCHAR

STARTCHAR afii10097
ENCODING 239
SWIDTH 604 0
DWIDTH 20 0
BBX 19 15 0 0
BITMAP
03FFE0
1FFFE0
3F0F80
3E0F80
3E0F80
3F0F80
1FFF80
03FF80
078F80
0F8F80
1F0F80
3E0F80
7E0F80
FC3FE0
F83FE0
ENDCHAR

STARTCHAR afii61352
ENCODING 240
SWIDTH 1115 0
DWIDTH 37 0
BBX 34 23 1 0
BITMAP
7F800E0000
7FC03F0000
1FC03F0000
0FE07F0000
0FE0760000
0FF0600000
0DF8607E00
0DF860E700
0DFC61C380
0CFE63C3C0
0C7E63C3C0
0C7F63C3C0
0C3F63C3C0
0C1FE3C3C0
0C1FE3C380
0C0FE1C380
0C07E0E700
0C07E07E00
4C03E00000
FC03E00000
F801E1FF80
F800E1FF80
7000E1FF80
ENDCHAR

STARTCHAR afii10071
ENCODING 241
SWIDTH 521 0
DWIDTH 17 0
BBX 15 22 1 0
BITMAP
3C38
3C78
3C78
3C78
0000
0000
0000
07C0
1FF0
3C78
783C
783C
7FFE
FFFE
F800
F800
FC00
7E04
7F1E
3FFC
3FF0
0FE0
ENDCHAR

STARTCHAR afii10099
ENCODING 242
SWIDTH 594 0
DWIDTH 20 0
BBX 17 29 1 -6
BITMAP
060000
3E0000
FE0000
7E0000
3E0000
FFFF00
FFFF00
3E0000
3E0000
3E3C00
3EFF00
3FFF00
3F1F80
3E0F80
3E0F80
3E0F80
3E0F80
3E0F80
3E0F80
3E0F80
3E0F00
FF8F00
FF8E00
001E00
001C00
001800
003000
007000
004000
ENDCHAR

STARTCHAR afii10100
ENCODING 243
SWIDTH 542 0
DWIDTH 18 0
BBX 16 23 1 0
BITMAP
00F8
01F0
01E0
03C0
0380
0300
0000
0000
FFFF
FFFF
3E0F
3E03
3E03
3E00
3E00
3E00
3E00
3E00
3E00
3E00
3E00
FF80
FF80
ENDCHAR

STARTCHAR afii10101
ENCODING 244
SWIDTH 521 0
DWIDTH 17 0
BBX 15 15 1 0
BITMAP
07FC
1E3E
3C0E
7C0E
7C06
FC00
FFE0
FFE0
FC00
7C00
7C0C
7C1E
3C3E
1E7E
07F8
ENDCHAR

STARTCHAR afii10102
ENCODING 245
SWIDTH 458 0
DWIDTH 15 0
BBX 12 15 2 0
BITMAP
1F00
7FE0
E0E0
E060
F020
FE00
FFC0
7FE0
1FF0
03F0
C0F0
E070
F0F0
FFE0
1F80
ENDCHAR

STARTCHAR afii10103
ENCODING 246
SWIDTH 333 0
DWIDTH 11 0
BBX 10 23 0 0
BITMAP
0C00
1E00
3F00
3F00
1E00
0C00
0000
0000
0F00
FF00
FF00
3F00
1F00
1F00
1F00
1F00
1F00
1F00
1F00
1F00
1F80
FFC0
FFC0
ENDCHAR

STARTCHAR afii10104
ENCODING 247
SWIDTH 333 0
DWIDTH 11 0
BBX 11 22 0 0
BITMAP
F1E0
F1E0
F1E0
70E0
0000
0000
0000
1F00
FF00
7F00
1F00
1F00
1F00
1F00
1F00
1F00
1F00
1F00
1F00
1F80
FFC0
FFC0
ENDCHAR

STARTCHAR afii10105
ENCODING 248
SWIDTH 313 0
DWIDTH 10 0
BBX 8 29 0 -6
BITMAP
0C
1E
3F
3F
1E
0C
00
00
0F
7F
FF
3F
1F
1F
1F
1F
1F
1F
1F
1F
1F
1F
1F
1E
3E
3C
78
F0
40
ENDCHAR

STARTCHAR afii10106
ENCODING 249
SWIDTH 854 0
DWIDTH 28 0
BBX 26 15 1 0
BITMAP
3FFFC000
3FFFC000
0C1F0000
0C1F0000
0C1F0000
0C1F0000
0C1FFC00
0C1FFF80
0C1F0F80
0C1F07C0
0C1F07C0
F81F07C0
F83F0FC0
F87FFF80
607FFC00
ENDCHAR

STARTCHAR afii10107
ENCODING 250
SWIDTH 854 0
DWIDTH 28 0
BBX 26 15 1 0
BITMAP
FF3FE000
FF3FE000
7C0F8000
3C0F0000
3C0F0000
3C0F0000
3FFFFC00
3FFFFF80
3C0F0F80
3C0F07C0
3C0F07C0
3C0F07C0
7E0F0FC0
FF3FFF80
FF3FFC00
ENDCHAR

STARTCHAR afii10108
ENCODING 251
SWIDTH 625 0
DWIDTH 21 0
BBX 19 23 1 0
BITMAP
0E0000
7E0000
FE0000
7E0000
3E0000
3E0000
FFFF00
FFFF00
3E0000
3E0000
3E3C00
3EFF00
3EFF00
3F0F80
3E0F80
3E0F80
3E0F80
3E0F80
3E0F80
3E0F80
3E0F80
FFBFE0
FFBFE0
ENDCHAR

STARTCHAR afii10109
ENCODING 252
SWIDTH 604 0
DWIDTH 20 0
BBX 19 23 1 0
BITMAP
007E00
007C00
007800
00F000
00E000
01C000
000000
000000
FF8380
FF87C0
3E0FC0
3E0FC0
3E1800
3E3000
3E7000
3FFC00
3E7E00
3E3E00
3E3F00
3E1F00
3E1F80
FF8FE0
FF87E0
ENDCHAR

STARTCHAR section
ENCODING 253
SWIDTH 573 0
DWIDTH 19 0
BBX 17 30 1 -7
BITMAP
03F800
0FFE00
1C3F00
2C1F80
6C0F00
4E0700
CE0000
C70000
C78000
E3C000
E1E000
70F000
787800
3C3800
1C3C00
1E1E00
0F0F00
078700
03C380
01E380
00F180
007180
003980
001980
780D80
FC0D00
FE0F00
7E0E00
3FF800
07E000
ENDCHAR

STARTCHAR afii10110
ENCODING 254
SWIDTH 542 0
DWIDTH 18 0
BBX 18 28 0 -6
BITMAP
0C0600
1E0F00
1E0F00
0E0F00
07FE00
01F000
000000
FF8FC0
FF8FC0
3E0380
3E0300
1F0300
1F8600
0F8600
07CC00
07CC00
03F800
03F800
01F000
01F000
00E000
00E000
004000
38C000
3DC000
7F8000
3F0000
1E0000
ENDCHAR

STARTCHAR afii10193
ENCODING 255
SWIDTH 612 0
DWIDTH 20 0
BBX 19 20 1 -5
BITMAP
FFBFE0
FFBFE0
3E0F80
3E0F80
3E0F80
3E0F80
3E0F80
3E0F80
3E0F80
3E0F80
3E0F80
3E0F80
3E0F80
FFFFE0
FFFFE0
01F000
01F000
01F000
01F000
01F000
ENDCHAR
ENDFONT
